#!OML:ASF F:\VICON\USERDATA\INSTALL\rory3\rory3.ASF
:FULLY-SPECIFIED
:DEGREES
94
root 0.06020075793255364 17.603396735967735 34.34961203684107 -1.5853380897809168 -3.5357073306455638 -6.601554772245153
lfemur -23.99653540066334 -6.022445963570538 -12.174153477384785
ltibia 14.028660773351156
lfoot -5.154881346620055 -4.606394483004171
ltoes -3.7271592034767234
rfemur -3.3141471515282923 6.345334830437649 30.72419048136785
rtibia 28.90802875199728
rfoot -8.400051135813339 -6.659239080465219
rtoes 1.0314616405233865
lowerback 10.324003923981326 1.1524822401373154 2.9987171114280957
upperback 0.012400444363770469 2.353070540609759 1.7659069482353054
thorax -5.175832070216051 1.290687531423656 -1.3957048966272703
lowerneck -15.482750947536875 -2.816471495657388 -3.0514556435798843
upperneck 22.647238466572965 -3.5347092748668185 0.6956104973521084
head 9.69208009587583 -1.7151034912302243 0.21122463354877835
lclavicle -1.3905275081831313e-15 -1.8578664445323197e-15
lhumerus -35.042131877903216 3.6096354765056824 80.55276060981593
lradius 23.477391505096048
lwrist -0.0043552063971605826
lhand -27.037355913569787 24.258987267193177
lfingers 7.125019999999999
lthumb -0.66222249086567 54.27115201537198
rclavicle -1.3882905634928501e-15 -1.8445220968897323e-15
rhumerus -26.42628928338607 -16.800164824766767 -79.03210503510223
rradius 26.59161321208507
rwrist -0.7713736832164653
rhand -17.92764929609318 22.661906545703822
rfingers 7.125019999999999
rthumb 8.19072952143651 -7.237277358890559
95
root 0.13245613061892353 17.61235722753811 35.165521555718776 -2.0964448485749205 -3.3082506519490487 -5.902238509592267
lfemur -23.391249862222914 -4.739059967467167 -13.727490632464338
ltibia 18.130300962680646
lfoot -4.687402587223895 -4.733908227993381
ltoes -3.72812820126928
rfemur -2.90987862760489 6.0326431529430655 30.227530118276594
rtibia 32.09563889574726
rfoot -7.719646201354928 -6.2751150708457475
rtoes 1.6630725214544804
lowerback 10.328838300322753 1.147884259521937 2.6660415225539147
upperback 0.009346113167942455 2.360891128023386 1.6725462312800452
thorax -5.087025246528492 1.3899715693735286 -1.456962667645698
lowerneck -15.489829134363708 -2.8036269342338564 -3.047270814686458
upperneck 22.668958402870047 -3.5479111487910955 0.7662075370160679
head 9.695084960428222 -1.7113758926161642 0.21942008293089155
lclavicle -1.3905275099426802e-15 -1.857866445666738e-15
lhumerus -34.937129764720545 3.4868336413607075 80.5824480244969
lradius 22.719995170273805
lwrist -0.20403267159432037
lhand -27.023780982200385 24.17052810526624
lfingers 7.125019999999999
lthumb -0.6437271134233774 54.209933137180045
rclavicle -1.38829056275688e-15 -1.844522096180778e-15
rhumerus -26.209061945518208 -16.58176909510124 -78.7843148603373
rradius 27.676337130623835
rwrist -1.228129193756775
rhand -17.936023464430182 22.666264698571432
rfingers 7.125019999999999
rthumb 8.173989354686563 -7.250013146976866
96
root 0.20765157084928793 17.643835219472404 36.02199798716826 -2.660953685360373 -3.0916823500029063 -5.054921830488473
lfemur -22.791147818895695 -4.001477913089552 -15.400383943902076
ltibia 22.838820136204408
lfoot -4.590930846960951 -4.4918206385089885
ltoes -3.684355805491643
rfemur -2.748009584400462 5.592004625762307 29.5556854724096
rtibia 36.96239265573836
rfoot -6.706350455529236 -5.8017223962644815
rtoes 2.743665340107885
lowerback 10.353204594379962 1.1281040462780016 2.2584574283618655
upperback 0.018235773855250187 2.3425128245092672 1.5644224036057433
thorax -5.027271600615376 1.447374645154609 -1.460372772955003
lowerneck -15.487705433867236 -2.7870092206566355 -3.037539916028492
upperneck 22.71379839309904 -3.548427514671262 0.8088781511199636
head 9.696110527387376 -1.711845872374872 0.2222172037647776
lclavicle -1.3905275071039632e-15 -1.8578664431516305e-15
lhumerus -34.706895312773156 3.338578219635345 80.60432462673896
lradius 21.95066652530181
lwrist -0.17993030598255721
lhand -27.016767014312517 24.081939121810837
lfingers 7.125019999999999
lthumb -0.622616738633673 54.157871381432464
rclavicle -1.3882905633796513e-15 -1.8445220967589652e-15
rhumerus -26.114678560887977 -16.439268080417612 -78.20008060751923
rradius 28.58606857982062
rwrist -1.2648723345061192
rhand -17.94811501416031 22.666738784382478
rfingers 7.125019999999999
rthumb 8.168998289834294 -7.248399698654342
97
root 0.28006863128203585 17.68652810140253 36.837625924628874 -3.1622853108250197 -2.992348890298854 -4.124029765754594
lfemur -21.4377288105403 -3.9236397267805576 -17.100939121998476
ltibia 26.174560279576244
lfoot -5.952211548730074 -4.626629606311383
ltoes -3.8295613576438505
rfemur -3.2309173030263363 4.9993776807239865 28.526847669860672
rtibia 43.50845411746622
rfoot -5.111860583130044 -5.363818801349766
rtoes 3.680106673069662
lowerback 10.394968384049047 1.089531233615865 1.7766043678939
upperback 0.04013287077240363 2.2674414580959623 1.4323981556649117
thorax -5.0083536945691405 1.4657900638907368 -1.414561951715431
lowerneck -15.506757338287462 -2.778811407128104 -3.0423296979065264
upperneck 22.759722616959877 -3.537810201947574 0.8220638961449798
head 9.697255266136503 -1.7122914563065987 0.22423598108607568
lclavicle -1.390527515402487e-15 -1.857866451060736e-15
lhumerus -34.31707769350041 3.177097296340884 80.69533790715717
lradius 21.224908561348492
lwrist -0.15608943374988815
lhand -27.012491638689905 24.00219082191951
lfingers 7.125019999999999
lthumb -0.6040628656474805 54.10888979697258
rclavicle -1.3882905638297318e-15 -1.844522097153303e-15
rhumerus -26.363248403773586 -16.687136545109094 -77.75705072683343
rradius 29.29845352439228
rwrist -0.9296141209936772
rhand -17.9659908236117 22.662546018639258
rfingers 7.125019999999999
rthumb 8.175233978944531 -7.22831912022693
98
root 0.342010774102066 17.729009521641334 37.52140223374717 -3.546948949411331 -3.0038120545249463 -3.1826644306372462
lfemur -19.81535428434166 -3.394691074911257 -18.72446691426592
ltibia 28.967887680250243
lfoot -5.866095088671105 -4.238066884327374
ltoes -4.0153774526406
rfemur -4.850850366952956 4.29511384406912 27.34963837588779
rtibia 51.25088493672493
rfoot -3.218819776832193 -5.315635055442046
rtoes 4.153387247348172
lowerback 10.456455078960355 1.0216707725250669 1.2426422241737987
upperback 0.07617343145079139 2.1155451939959518 1.2869213625363964
thorax -5.033136276181092 1.4516633301650181 -1.3217319330306678
lowerneck -15.493465660963597 -2.7609565906362605 -3.030426531233549
upperneck 22.79665699590646 -3.510450852879235 0.8092449026115187
head 9.690108668458445 -1.713539256422544 0.222038181706938
lclavicle -1.3905275138480964e-15 -1.8578664494694546e-15
lhumerus -33.66797904761367 3.0747935060320946 80.84293874846485
lradius 20.60324112833815
lwrist 0.18129601719430166
lhand -27.008497530710812 23.936914937476264
lfingers 7.125019999999999
lthumb -0.5922885448545736 54.057213554680146
rclavicle -1.3882905631520744e-15 -1.8445220965248203e-15
rhumerus -26.823155983366146 -17.16768110157071 -77.38907922537764
rradius 29.813289245979977
rwrist -0.41792661618382976
rhand -17.988454767772204 22.655620553916055
rfingers 7.125019999999999
rthumb 8.187877758571263 -7.199402725416958
99
root 0.387842901879677 17.764619790557756 38.01259415078572 -3.8237944221522673 -2.9998874850504174 -2.2968435236856113
lfemur -17.804126324328287 -2.8497543874308717 -20.313461336536005
ltibia 30.28677566966361
lfoot -6.07432443228948 -3.4660456665225547
ltoes -4.244525759774933
rfemur -7.1188839672141 3.6333640574935364 26.2586265373862
rtibia 59.05722358414638
rfoot -2.0520427697548618 -5.599482634713484
rtoes 4.276910125550301
lowerback 10.5373945139518 0.9151599461580402 0.701967257357923
upperback 0.13343136462076538 1.9121497125401086 1.1557839672384747
thorax -5.09643714862319 1.411351802201434 -1.178423715791783
lowerneck -15.490612402950594 -2.7528868924640895 -3.034098572386652
upperneck 22.815518776455555 -3.4732291980348156 0.7929522196179939
head 9.694250224587718 -1.7058658797574917 0.22721928881624448
lclavicle -1.3905275158598777e-15 -1.8578664507630945e-15
lhumerus -33.03757310397554 2.862841737596 80.93150960821298
lradius 20.13135618502447
lwrist 0.5925501930544046
lhand -27.00406103748155 23.889015116134974
lfingers 7.125019999999999
lthumb -0.5868588326254446 54.00441228931004
rclavicle -1.3882905631811372e-15 -1.8445220965554016e-15
rhumerus -27.35313371941043 -17.704276007601557 -77.0619198377848
rradius 30.13064805845682
rwrist 0.2509225452735855
rhand -18.012497706695893 22.646576201092323
rfingers 7.125019999999999
rthumb 8.20089521188873 -7.18108458538605
100
root 0.41790838831883936 17.790320412273864 38.3899927578655 -4.007024727810812 -2.8448765083544734 -1.5631299186411043
lfemur -15.815173811940015 -2.8115649306838124 -22.15863813237033
ltibia 30.24594836798951
lfoot -6.667132278892433 -3.2499527452616914
ltoes -4.409513535246498
rfemur -9.532375887143562 3.0922372820693207 25.343789939417835
rtibia 65.52729706400056
rfoot -1.5671414037078861 -5.9979332537977035
rtoes 4.338397794908256
lowerback 10.631416641995752 0.7749348989943532 0.2218218424969599
upperback 0.22157832523997648 1.7112496583568995 1.0792407941317808
thorax -5.190714711625676 1.3445368547997523 -0.9868092760856986
lowerneck -15.453856064342995 -2.740468272001574 -3.030986454613224
upperneck 22.809767134306313 -3.439916808607945 0.7765571707160572
head 9.708317467288328 -1.6927612746094984 0.23983023975313744
lclavicle -1.390527517488677e-15 -1.8578664523722998e-15
lhumerus -32.53206251853538 2.485436549287739 81.01051775157734
lradius 19.82946206662086
lwrist 1.0259038142067292
lhand -26.996490782498796 23.863158120093335
lfingers 7.125019999999999
lthumb -0.5834002795718489 53.95868276671411
rclavicle -1.3882905628633677e-15 -1.844522096261812e-15
rhumerus -27.95911276074936 -18.433144487968733 -76.76463762541616
rradius 30.244119769602218
rwrist 1.1829414812800882
rhand -18.03286668965931 22.64334672323101
rfingers 7.125019999999999
rthumb 8.20803542445241 -7.184350394132909
